<svg width="30" height="31" viewBox="0 0 30 31" fill="none" xmlns="http://www.w3.org/2000/svg">
<path fill-rule="evenodd" clip-rule="evenodd" d="M2.91162 5.92764L9.69606 3.58578L11.0958 7.79947L4.31139 10.1413L2.91162 5.92764ZM5.00421 6.98154L5.34528 8.00824L9.00325 6.74558L8.66218 5.71887L5.00421 6.98154Z" fill="white"/>
<path d="M8.80207 25.7229C9.17867 26.8838 10.2755 27.6095 11.4689 27.4879L21.6134 26.4544L21.5755 26.0678L21.4438 24.7241L20.7749 17.9021L18.3981 18.1443L17.0799 18.2786L15.364 18.4534L11.2677 5.96174L10.4105 6.25386L11.2506 5.96431L10.4293 6.25986L3.95008 8.45505L3.27277 8.6857L8.80207 25.7229ZM18.5648 19.6595L19.6236 19.5516L20.1257 24.8584L19.0669 24.9663L18.5648 19.6595ZM13.9603 20.1128L17.2521 19.7925L17.7867 25.4875L11.3372 26.1445C10.7654 26.2028 10.2398 25.8552 10.0596 25.2988L4.94495 9.53983L9.72496 7.91122L9.94881 7.87959L13.9603 20.1128Z" fill="white"/>
<ellipse cx="1.29094" cy="1.31287" rx="1.29094" ry="1.31287" transform="matrix(0.978134 -0.206123 0.198831 0.980412 22.5615 20.7833)" fill="white"/>
<ellipse cx="0.753046" cy="0.76584" rx="0.753046" ry="0.76584" transform="matrix(0.978134 -0.206123 0.198831 0.980412 21.7056 18.7267)" fill="white"/>
<ellipse cx="0.322734" cy="0.328217" rx="0.322734" ry="0.328217" transform="matrix(0.978134 -0.206123 0.198831 0.980412 26.2266 20.4584)" fill="white"/>
<ellipse cx="0.322734" cy="0.328217" rx="0.322734" ry="0.328217" transform="matrix(0.978134 -0.206123 0.198831 0.980412 21.9443 23.1503)" fill="white"/>
<ellipse cx="0.753046" cy="0.76584" rx="0.753046" ry="0.76584" transform="matrix(0.978134 -0.206123 0.198831 0.980412 23.8105 18.2833)" fill="white"/>
<ellipse cx="0.753046" cy="0.76584" rx="0.753046" ry="0.76584" transform="matrix(0.978134 -0.206123 0.198831 0.980412 25.3188 23.5577)" fill="white"/>
</svg>
