<svg width="30" height="30" viewBox="0 0 30 30" fill="none" xmlns="http://www.w3.org/2000/svg">
<path d="M27.8516 1.28933C26.7052 0.206303 26.062 -0.559239 24.9157 0.523784L22.728 2.07976L27.2898 6.38967L29.0717 4.19522C30.2183 3.1122 29.4081 2.75995 28.2614 1.6766L27.8516 1.28933Z" fill="white"/>
<path d="M19.0275 2.32669L20.2122 3.44593L5.4734 17.3713L5.73961 17.6228L4.16343 19.1126L5.26037 20.1483L1.18336 24.0002C0.795268 24.3669 0.581543 24.8542 0.581543 25.3726C0.581543 25.8909 0.795268 26.3783 1.18336 26.7449C1.58388 27.1234 2.10973 27.3122 2.63593 27.3122C3.16178 27.3122 3.68764 27.123 4.08816 26.7449L8.16551 22.893L9.2621 23.9291L10.8386 22.4403L11.1052 22.6918L25.8443 8.76644L27.0289 9.88567L29.0094 8.01452L21.008 0.455215L19.0275 2.32669ZM3.01815 25.7337C2.80719 25.9337 2.46433 25.9333 2.25371 25.734C2.15151 25.6375 2.09523 25.5089 2.09523 25.3726C2.09523 25.2362 2.15151 25.108 2.25371 25.0118L6.33072 21.1599L7.09516 21.8821L3.01815 25.7337ZM9.2621 21.9072L9.23552 21.8821L6.33072 19.1374L6.30379 19.1126L6.80996 18.634L8.28912 20.0315L9.76828 21.429L9.2621 21.9072ZM11.2512 20.909L7.67522 17.4476L7.61376 17.3713L21.2825 4.45686L24.7739 7.75551L11.2512 20.909Z" fill="white"/>
<path d="M1.28674 27.3481L1.24265 27.3169L1.19855 27.3481C1.15762 27.377 0.196289 28.0684 0.196289 29.0114C0.196289 29.5565 0.665669 30 1.24265 30C1.81963 30 2.28901 29.5565 2.28901 29.0114C2.28901 28.0684 1.32768 27.377 1.28674 27.3481ZM1.24265 27.4928C1.25893 27.5314 1.86141 27.9776 1.73479 28.2268C1.66774 28.3588 1.05617 27.6393 1.24265 27.4928Z" fill="white"/>
</svg>
