<svg width="30" height="30" viewBox="0 0 30 30" fill="none" xmlns="http://www.w3.org/2000/svg">
<path d="M20.757 0C18.4803 0 16.3267 0.88422 14.7155 2.45218C13.1009 0.88422 10.9464 0 8.6699 0C3.88727 0 0 3.89003 0 8.67486C0 19.0061 13.6266 29.1977 14.2066 29.6281L14.7155 30L15.2204 29.6281C15.8007 29.1977 29.4304 19.0061 29.4304 8.67486C29.4304 3.89003 25.5393 0 20.757 0ZM4.29723 16.5734L3.27319 14.7066C3.24554 14.6417 3.21516 14.5799 3.18785 14.5219C3.04073 14.2145 2.90419 13.9071 2.77789 13.5997C2.76799 13.5693 2.754 13.5451 2.74717 13.5246C2.73727 13.5072 2.73079 13.4867 2.72703 13.4699H2.72362L2.71986 13.4597C2.0853 11.8818 1.70674 10.2695 1.70674 8.67486C1.70674 4.83265 4.82974 1.70765 8.6699 1.70765C10.762 1.70765 12.7251 2.63627 14.0564 4.25546L14.7155 5.0584L15.3743 4.25546C16.7018 2.63627 18.6646 1.70765 20.757 1.70765C24.6006 1.70765 27.7236 4.83265 27.7236 8.67486C27.7236 9.73361 27.5564 10.7992 27.2594 11.8545L27.2563 11.8576V11.8685C27.2532 11.8753 27.2498 11.8887 27.2427 11.9054C27.0413 12.6229 26.775 13.3367 26.4647 14.0441L25.6114 15.7517L25.2325 16.4071L25.6114 15.7517C25.4885 15.9699 25.3618 16.1885 25.2325 16.4071C24.6317 17.418 23.9521 18.3986 23.2315 19.3344C23.2315 19.3378 23.2284 19.3408 23.2253 19.3439C20.0406 23.4939 16.098 26.7695 14.7155 27.8624C13.1351 26.6124 8.22581 22.5277 4.91132 17.5376C4.66589 17.1687 4.42695 16.793 4.20166 16.4136" fill="white"/>
<path fill-rule="evenodd" clip-rule="evenodd" d="M21.4732 7.78388C21.6971 7.78161 21.8936 7.93277 21.9496 8.15021L23.3437 13.5688L23.8504 9.73613C23.8794 9.51658 24.0521 9.34411 24.2711 9.31592C24.4901 9.28773 24.7006 9.41089 24.784 9.61597L25.7049 11.8819H28.0237C28.2926 11.8819 28.5106 12.1006 28.5106 12.3703C28.5106 12.64 28.2926 12.8587 28.0237 12.8587H25.3776C25.1797 12.8587 25.0014 12.7385 24.9267 12.5546L24.5747 11.6885L23.9802 16.1852C23.9495 16.417 23.7595 16.5944 23.5268 16.6085C23.2942 16.6226 23.0842 16.4694 23.026 16.2431L21.4986 10.3065L20.8378 13.1079C20.7858 13.3282 20.5897 13.4838 20.364 13.4838H18.1131L17.2195 17.7496C17.1732 17.9708 16.9814 18.1313 16.7561 18.1373C16.5307 18.1434 16.3307 17.9936 16.2725 17.7751L14.8737 12.5194L14.5118 16.1694C14.4906 16.3832 14.3325 16.5581 14.1224 16.6C13.9122 16.642 13.6994 16.5413 13.5982 16.3519L12.0647 13.4838H8.38692C8.21049 13.4838 8.04787 13.3881 7.96183 13.2336L7.62155 12.6226L6.98889 17.0927C6.95643 17.322 6.76778 17.4969 6.53727 17.5114C6.30675 17.5259 6.0978 17.376 6.03703 17.1525L4.3306 10.8759L3.7097 13.7248C3.66083 13.9491 3.46286 14.1089 3.23401 14.1089H1.14551V13.1322H2.84203L3.80283 8.72361C3.85071 8.50392 4.04197 8.34542 4.2661 8.33969C4.49024 8.33395 4.68931 8.48247 4.74829 8.69942L6.35616 14.6135L6.86032 11.0514C6.88969 10.8439 7.04779 10.6783 7.25322 10.6399C7.45865 10.6015 7.6656 10.6989 7.7675 10.8819L8.67266 12.507H12.3561C12.5355 12.507 12.7004 12.606 12.7852 12.7646L13.7009 14.4773L14.1694 9.752C14.1927 9.51715 14.3801 9.33261 14.6146 9.31354C14.8492 9.29448 15.0637 9.44635 15.1244 9.67436L16.6865 15.5435L17.2413 12.895C17.2887 12.6689 17.4875 12.507 17.7179 12.507H19.9788L21.0043 8.1598C21.0558 7.94126 21.2493 7.78616 21.4732 7.78388Z" fill="white"/>
</svg>
