<svg width="31" height="24" viewBox="0 0 31 24" fill="none" xmlns="http://www.w3.org/2000/svg">
<path d="M18.5827 13.7585L18.6232 13.8402L15.9396 11.2287V1.54556C15.9396 0.989041 15.4966 0.538147 14.951 0.538147C14.4047 0.538147 13.9624 0.989041 13.9624 1.54556V11.2287L11.2788 13.7575L11.7245 15.9662L11.695 15.8949L14.9506 13.0711L18.1258 15.9361L18.2179 15.5119C18.2179 15.5119 18.6031 13.8402 18.5827 13.7585Z" fill="white"/>
<path d="M12.3734 12.8484V7.87098C12.3734 6.97399 11.9725 6.10054 11.2397 5.6039C10.3495 5.00025 9.21439 5.02276 8.35549 5.63577C5.57324 7.62335 0.805471 12.223 0.0498567 20.7333C-0.0106187 21.4153 0.160617 22.1089 0.594143 22.6312C1.06844 23.2027 1.73708 23.5123 2.43629 23.5123C2.57797 23.5123 2.721 23.4998 2.86438 23.4738L8.94428 22.3722C10.9281 22.0127 12.3734 20.2544 12.3734 18.2006V15.6773L12.3843 15.6883L12.3734 12.8484ZM10.9352 18.2006C10.9352 19.5458 9.99242 20.6935 8.69252 20.9287L3.43381 21.8024C3.13449 21.8568 2.83448 21.7678 2.61024 21.5586C2.38363 21.3477 2.26879 21.0468 2.29495 20.7344C2.93709 13.1511 6.01968 9.09491 9.18143 6.83615C9.52764 6.58852 9.95913 6.55943 10.3349 6.75857C10.711 6.9584 10.9352 7.33521 10.9352 7.76777V18.2006Z" fill="white"/>
<path d="M17.5651 12.8484V7.87095C17.5651 6.97395 17.9705 6.1005 18.7115 5.60386C19.6116 5.0002 20.7594 5.02272 21.6279 5.63572C24.4412 7.62332 29.2621 12.223 30.0262 20.7334C30.0873 21.4153 29.9142 22.109 29.4758 22.6313C28.9962 23.2027 28.3201 23.5123 27.6131 23.5123C27.4699 23.5123 27.3252 23.4999 27.1803 23.4739L21.0325 22.3722C19.0266 22.0127 17.5651 20.2544 17.5651 18.2006V15.6773L17.5541 15.6883L17.5651 12.8484ZM19.0194 18.2006C19.0194 19.5458 19.9727 20.6935 21.2871 20.9287L26.7045 21.733C27.0072 21.7874 27.3105 21.6984 27.5373 21.4892C27.7664 21.2783 27.8825 20.9773 27.8561 20.6649C27.2068 13.0817 23.9898 9.09488 20.7927 6.83611C20.4427 6.58848 20.0064 6.55939 19.6264 6.75853C19.2461 6.95836 19.0194 7.33517 19.0194 7.76774V18.2006Z" fill="white"/>
</svg>
