<svg width="30" height="30" viewBox="0 0 30 30" fill="none" xmlns="http://www.w3.org/2000/svg">
<path d="M4.80293 3.28372V7.98503H4.66896C2.23355 7.98503 0.259766 9.88832 0.259766 12.2368V22.7413C0.259766 26.7504 3.63011 30 7.78764 30C11.9452 30 15.3155 26.7504 15.3155 22.7413V12.2368C15.3155 9.88832 13.3414 7.98503 10.9063 7.98503H10.7716V7.06031H13.9391C14.4103 9.98818 17.0422 12.2368 20.2086 12.2368H20.9615C20.9615 12.2368 23.117 10.4282 23.0261 5.60659C22.9353 0.78497 20.9615 0 20.9615 0H20.2086C17.0422 0 14.4103 2.24823 13.9391 5.17645H10.7716V3.28372H4.80293ZM19.4554 1.50791V6.51802V10.7285C17.1433 10.3788 15.3696 8.44449 15.3696 6.11821C15.3696 3.79192 17.1433 1.85762 19.4554 1.50791ZM9.26621 5.17645H6.30836V4.73573H9.26621V5.17645ZM13.3799 12.2368V22.7413C13.3799 25.7196 10.8763 28.1339 7.78764 28.1339C4.69901 28.1339 2.19537 25.7196 2.19537 22.7413V12.2368C2.19537 10.9194 3.3028 9.8515 4.66896 9.8515H10.9063C12.2725 9.8515 13.3799 10.9194 13.3799 12.2368ZM9.26621 7.98503H6.30836V7.06031H9.26621V7.98503Z" fill="white"/>
<ellipse cx="1.4211" cy="1.37609" rx="1.4211" ry="1.37609" transform="matrix(0.980655 -0.195746 0.209361 0.977839 24.6851 4.08311)" fill="white"/>
<ellipse cx="1.4211" cy="1.37609" rx="1.4211" ry="1.37609" transform="matrix(0.980655 -0.195746 0.209361 0.977839 21.1313 3.76245)" fill="white"/>
<ellipse cx="0.815238" cy="0.789419" rx="0.815238" ry="0.789419" transform="matrix(0.980655 -0.195746 0.209361 0.977839 24.4521 7.41838)" fill="white"/>
<ellipse cx="0.815238" cy="0.789419" rx="0.815238" ry="0.789419" transform="matrix(0.980655 -0.195746 0.209361 0.977839 22.0801 6.96039)" fill="white"/>
<ellipse cx="0.828973" cy="0.802719" rx="0.828973" ry="0.802719" transform="matrix(0.980655 -0.195746 0.209361 0.977839 23.7402 1.93318)" fill="white"/>
<ellipse cx="0.355274" cy="0.344022" rx="0.355274" ry="0.344022" transform="matrix(0.980655 -0.195746 0.209361 0.977839 28.73 3.7435)" fill="white"/>
<ellipse cx="0.355274" cy="0.344022" rx="0.355274" ry="0.344022" transform="matrix(0.980655 -0.195746 0.209361 0.977839 24.0039 6.5576)" fill="white"/>
<ellipse cx="0.828973" cy="0.802719" rx="0.828973" ry="0.802719" transform="matrix(0.980655 -0.195746 0.209361 0.977839 26.063 1.46956)" fill="white"/>
<ellipse cx="0.828973" cy="0.802719" rx="0.828973" ry="0.802719" transform="matrix(0.980655 -0.195746 0.209361 0.977839 27.728 6.98351)" fill="white"/>
</svg>
