<svg width="30" height="30" viewBox="0 0 30 30" fill="none" xmlns="http://www.w3.org/2000/svg">
<path d="M25.8764 3.63936H20.9941V0H8.69941V3.63936H3.8171C1.78518 3.63936 0.131836 5.66209 0.131836 8.14788V30H29.5624V8.14788C29.5624 5.66209 27.909 3.63936 25.8764 3.63936ZM10.6908 2.43539H19.0038V3.63936H10.6908V2.43539ZM27.5713 27.565H2.12289V8.14788C2.12289 7.00456 2.88272 6.07434 3.8171 6.07434H25.8764C26.8112 6.07434 27.5713 7.00456 27.5713 8.14788V27.565Z" fill="white"/>
<path d="M20.0815 19.189L20.0815 14.4753L16.5977 14.4753L16.5977 10.4286L12.7516 10.4286L12.7516 14.4753L9.26771 14.4753L9.26771 19.072L12.7516 19.072L12.7516 23.2357L16.5977 23.2357L16.5977 19.189L20.0815 19.189Z" fill="white"/>
</svg>
